<?xml version="1.0" encoding="utf-8"?>
<!-- Generator: Adobe Illustrator 22.0.1, SVG Export Plug-In . SVG Version: 6.00 Build 0)  -->
<svg version="1.1" id="Layer_1" xmlns="http://www.w3.org/2000/svg" xmlns:xlink="http://www.w3.org/1999/xlink" x="0px" y="0px"
	 viewBox="0 0 24 24" style="enable-background:new 0 0 24 24;" xml:space="preserve">
<style type="text/css">
	.st0{fill-rule:evenodd;clip-rule:evenodd;fill:#F2F2F2;}
	.st1{opacity:0.65;}
</style>
<path class="st0" d="M7.5,5C5.6,5,4,6.6,4,8.5v7C4,17.4,5.6,19,7.5,19h10c1.9,0,3.5-1.6,3.5-3.5v-7C21,6.6,19.4,5,17.5,5H7.5z
	 M18.4,7C18.6,7,19,7.3,19,7.5v6.3c-0.1,0.1-0.3,0.6-0.5,0.6h-1.9v1c0,0.2-0.4,0.5-0.5,0.5h-0.9c0,0,0.1,1.2-0.6,1.2h-4.2
	c-0.8-0.2-0.7-0.5-0.7-0.9v-0.2h-1c-0.2-0.1-0.5-0.4-0.5-0.6v-0.9H6.4C6.3,14.3,6,14.1,6,13.9V7.4C6,7.3,6.3,7,6.5,7H18.4z"/>
<g class="st1">
	<rect x="8" y="10" class="st0" width="1" height="2"/>
	<rect x="10" y="10" class="st0" width="1" height="2"/>
	<rect x="12" y="10" class="st0" width="1" height="2"/>
	<rect x="14" y="10" class="st0" width="1" height="2"/>
	<rect x="16" y="10" class="st0" width="1" height="2"/>
</g>
</svg>
